<svg xmlns="http://www.w3.org/2000/svg" viewBox="0 0 219.47 97.27"><defs><style>.cls-1{fill:#fff;}</style></defs><g id="Слой_2" data-name="Слой 2"><g id="Слой_3" data-name="Слой 3"><path class="cls-1" d="M34.75,35.31l-.29-2.73-.28,0Z"/><path class="cls-1" d="M35,32.52l.31,2.89V32.5Z"/><path class="cls-1" d="M60.23,48.39,49.4,44.85a.25.25,0,0,1,.16-.48L60,47.79a22.54,22.54,0,0,0-1.14-2.5L50,43.4a.25.25,0,0,1,.11-.49l8.39,1.8a23.34,23.34,0,0,0-1.36-2.13l-6.67-.71a.24.24,0,0,1-.22-.27.25.25,0,0,1,.27-.23l6.23.66c-.46-.6-.94-1.19-1.45-1.75H50.81a.25.25,0,0,1,0-.5h4c-.47-.48-1-1-1.46-1.39L51,38.65h0a.25.25,0,0,1-.24-.23.24.24,0,0,1,.22-.27l2-.21c-.46-.37-.93-.73-1.41-1.07L51,37H50.9a.25.25,0,0,1-.24-.2.25.25,0,0,1,.19-.29h0a24.07,24.07,0,0,0-13.45-4.09c-.57,0-1.13,0-1.69.07v6.79h3.45a5,5,0,0,1,1,.11,2.6,2.6,0,0,1,.88.39,2,2,0,0,1,.6.71A2.16,2.16,0,0,1,42,41.52a1.52,1.52,0,0,1-.25.88,2.25,2.25,0,0,1-.55.59c-.13.1-.12.18,0,.26a2.6,2.6,0,0,1,.36.25,1.45,1.45,0,0,1,.33.36,2,2,0,0,1,.25.49,2.13,2.13,0,0,1,.09.65A2.72,2.72,0,0,1,42,46.21a2,2,0,0,1-.62.76,2.43,2.43,0,0,1-.91.41,4.7,4.7,0,0,1-1.08.12H35.13a.27.27,0,0,1-.27-.27V39.8l-.25-.28,0,0a.3.3,0,0,1-.15,0l-.35-.26a.21.21,0,0,1-.17.08l-.12,0-.21-.12a.48.48,0,0,1,0,.12.27.27,0,0,1-.23.14.16.16,0,0,1-.1,0l-.09,0h0a.26.26,0,0,1-.24.18l-.08,0-.21-.07a.22.22,0,0,1-.2.13h-.05l-.08,0a.28.28,0,0,1,0,.12.26.26,0,0,1-.25.23h0l-.25,0a.25.25,0,0,1,.06.14.25.25,0,0,1-.25.25h-.33a.24.24,0,0,1-.08.46L18.05,42.13c.14-.18.29-.36.43-.55l12.29-1.3H19.58l.48-.5H30.78l-9.67-1c.16-.16.34-.3.51-.45l9.45,1L22.6,37.5l.49-.37L31,38.83,24,36.51l.46-.29,6.67,2.21-5.91-2.68.53-.31L31.45,38l-5.07-3,.58-.29,4.74,2.76-4.15-3,.52-.23L32,37.16l-3.4-3.08.43-.17,3.2,2.92-2.74-3.08.51-.18,2.52,2.84-2.12-3,.51-.15,2,2.81L31.25,33.2l.51-.13,1.58,2.78L32.09,33l.49-.12,1.22,2.77-.91-2.82.5-.09.88,2.75-.58-2.8.46-.07A24.19,24.19,0,1,0,60.23,48.39ZM17,43.75l13.76-2.94a.25.25,0,0,1,.1.48L16.59,44.34Zm-1.4,2.56,14.77-4.84a.26.26,0,0,1,.32.16.25.25,0,0,1-.16.31l-15.21,5ZM14.4,49.23l15.61-7a.25.25,0,0,1,.33.13.24.24,0,0,1-.12.33l-16,7.19C14.27,49.65,14.33,49.44,14.4,49.23Zm-.79,3.26,16.22-9.44a.26.26,0,0,1,.35.09.25.25,0,0,1-.09.34L13.51,53.13C13.54,52.91,13.57,52.7,13.61,52.49Zm-.36,4.11c0-.19,0-.39,0-.59L29.81,43.9a.24.24,0,0,1,.35.05.25.25,0,0,1-.05.35L13.26,56.64Zm.21,3.11L29.91,44.78a.25.25,0,1,1,.33.37L13.54,60.31C13.51,60.11,13.49,59.91,13.46,59.71Zm.79,3.75L30.13,45.68a.25.25,0,0,1,.35,0,.26.26,0,0,1,0,.36L14.42,64C14.36,63.84,14.3,63.65,14.25,63.46Zm1.92,3.65a.23.23,0,0,1-.14,0,.26.26,0,0,1-.06-.35L30.48,46.58a.25.25,0,0,1,.41.29L16.38,67A.25.25,0,0,1,16.17,67.11Zm3.27,1.49a.27.27,0,0,1-.22.13.31.31,0,0,1-.13,0,.26.26,0,0,1-.09-.35L31,47.44a.25.25,0,0,1,.43.25ZM22.38,70l-.1,0a.26.26,0,0,1-.13-.33l9.46-21.41a.25.25,0,0,1,.45.21l-9.45,21.4A.25.25,0,0,1,22.38,70Zm3.24.95h-.07a.26.26,0,0,1-.17-.32l7-21.62a.24.24,0,0,1,.31-.16.25.25,0,0,1,.16.31l-7,21.63A.25.25,0,0,1,25.62,71Zm3.29.64h-.05a.25.25,0,0,1-.2-.3l4.56-21.61a.27.27,0,0,1,.3-.19.25.25,0,0,1,.19.3L29.15,71.4A.25.25,0,0,1,28.91,71.6Zm3.58.12a.27.27,0,0,1-.25.22h0a.25.25,0,0,1-.22-.28l2.2-21.38a.26.26,0,0,1,.27-.23.26.26,0,0,1,.23.28Zm3.27,0a.25.25,0,0,1-.5,0V50.89a.25.25,0,0,1,.5,0Zm3-.16h0a.25.25,0,0,1-.24-.22L36.42,51.13a.25.25,0,0,1,.22-.28.25.25,0,0,1,.27.23L39,71.32A.25.25,0,0,1,38.8,71.6ZM42,70.53h-.06a.26.26,0,0,1-.24-.2l-4-19a.25.25,0,0,1,.19-.3.26.26,0,0,1,.3.2l4,19A.25.25,0,0,1,42,70.53Zm3-1.12-.08,0a.24.24,0,0,1-.23-.18L38.91,51.39a.25.25,0,0,1,.16-.31.26.26,0,0,1,.32.16L45.14,69.1A.25.25,0,0,1,45,69.41Zm2.81-1.58-.11,0a.25.25,0,0,1-.22-.15L40.21,51.3a.25.25,0,0,1,.13-.33.25.25,0,0,1,.33.13l7.24,16.4A.25.25,0,0,1,47.79,67.83ZM50.37,66a.19.19,0,0,1-.12,0,.26.26,0,0,1-.22-.13l-8.5-14.84A.25.25,0,0,1,42,50.8l8.51,14.84A.25.25,0,0,1,50.37,66Zm2.36-2.05a.23.23,0,0,1-.14,0,.25.25,0,0,1-.21-.1L42.86,50.66a.25.25,0,0,1,.06-.35.25.25,0,0,1,.35.06l9.52,13.21A.25.25,0,0,1,52.73,63.93Zm2.12-2.25a.23.23,0,0,1-.17.07.23.23,0,0,1-.18-.09L44.17,50.1a.25.25,0,1,1,.37-.33L54.87,61.33A.25.25,0,0,1,54.85,61.68Zm1.86-2.41a.25.25,0,0,1-.19.09.24.24,0,0,1-.16-.07L45.42,49.37a.26.26,0,0,1,0-.36.25.25,0,0,1,.36,0l10.93,9.92A.25.25,0,0,1,56.71,59.27Zm1.58-2.55a.22.22,0,0,1-.2.1.19.19,0,0,1-.14,0L46.6,48.46a.25.25,0,1,1,.29-.4l11.35,8.31A.24.24,0,0,1,58.29,56.72ZM59.58,54a.24.24,0,0,1-.21.13.2.2,0,0,1-.13,0L47.67,47.4a.25.25,0,1,1,.25-.43L59.49,53.7A.25.25,0,0,1,59.58,54Zm.74-2.62-.1,0L48.61,46.19a.26.26,0,0,1-.12-.34.25.25,0,0,1,.33-.12l11.61,5.21a.25.25,0,0,1-.11.48Z"/><path class="cls-1" d="M44.26,24.75a.28.28,0,0,0,.13,0,.24.24,0,0,0,.21-.12l1.74-3a.25.25,0,0,0-.43-.25l-1.74,3A.25.25,0,0,0,44.26,24.75Z"/><path class="cls-1" d="M41.07,22.79h.08a.24.24,0,0,0,.23-.18l.68-2.11a.24.24,0,0,0-.16-.31.25.25,0,0,0-.31.16l-.68,2.11A.26.26,0,0,0,41.07,22.79Z"/><path class="cls-1" d="M42.83,23.71a.25.25,0,0,0,.23-.15L44.21,21a.25.25,0,0,0-.13-.33.27.27,0,0,0-.33.13L42.6,23.36a.25.25,0,0,0,.13.33Z"/><path class="cls-1" d="M46.91,27.27a.2.2,0,0,0,.16.07.25.25,0,0,0,.19-.09l3.17-3.54a.25.25,0,1,0-.38-.34l-3.16,3.55A.23.23,0,0,0,46.91,27.27Z"/><path class="cls-1" d="M45.66,26a.27.27,0,0,0,.15.05.26.26,0,0,0,.2-.11l2.41-3.34a.25.25,0,0,0-.41-.3L45.6,25.6A.25.25,0,0,0,45.66,26Z"/><path class="cls-1" d="M61,48.12l-1-.33.24.6.64.21H61a.23.23,0,0,0,.23-.17A.25.25,0,0,0,61,48.12Z"/><path class="cls-1" d="M35.76,32.46V.25a.25.25,0,0,0-.5,0V32.5Z"/><path class="cls-1" d="M39.3,22.05h.05a.26.26,0,0,0,.25-.2l.32-1.55a.25.25,0,0,0-.19-.3.24.24,0,0,0-.29.19l-.33,1.56A.25.25,0,0,0,39.3,22.05Z"/><path class="cls-1" d="M35,32.52,31.59.66a.25.25,0,1,0-.5.06l3.37,31.86Z"/><path class="cls-1" d="M37.44,21.51h0a.27.27,0,0,0,.25-.23l.1-1a.26.26,0,0,0-.23-.28.25.25,0,0,0-.27.22l-.1,1A.23.23,0,0,0,37.44,21.51Z"/><path class="cls-1" d="M48,28.71a.27.27,0,0,0,.36,0l4-3.63a.25.25,0,0,0,0-.36.24.24,0,0,0-.35,0l-4,3.62A.26.26,0,0,0,48,28.71Z"/><path class="cls-1" d="M57.17,42.58l4,.42h0a.25.25,0,0,0,0-.5L56.78,42C56.92,42.21,57,42.4,57.17,42.58Z"/><path class="cls-1" d="M55.33,40.28h5.51a.25.25,0,0,0,0-.5h-6Z"/><path class="cls-1" d="M58.53,44.71c.11.19.22.38.32.58l2.32.49h0a.25.25,0,0,0,.05-.49Z"/><path class="cls-1" d="M53.39,38.39l6.9-.73a.25.25,0,0,0,0-.5l-7.37.78Z"/><path class="cls-1" d="M50.48,35.13a.27.27,0,0,0,.24.17h.08l7.65-2.51a.25.25,0,0,0,.16-.32.25.25,0,0,0-.31-.16l-7.66,2.51A.26.26,0,0,0,50.48,35.13Z"/><path class="cls-1" d="M49.6,31.83a.26.26,0,0,0,.22.12.31.31,0,0,0,.13,0l5.8-3.38a.26.26,0,0,0,.09-.34.26.26,0,0,0-.35-.09L49.7,31.49A.26.26,0,0,0,49.6,31.83Z"/><path class="cls-1" d="M50.14,33.47a.24.24,0,0,0,.22.14.22.22,0,0,0,.11,0l6.73-3a.25.25,0,0,0,.12-.33.24.24,0,0,0-.33-.12l-6.73,3A.25.25,0,0,0,50.14,33.47Z"/><path class="cls-1" d="M49,30.16a.23.23,0,0,0,.2.1.28.28,0,0,0,.15,0l4.74-3.51a.25.25,0,0,0-.3-.4l-4.74,3.5A.25.25,0,0,0,49,30.16Z"/><path class="cls-1" d="M51.46,36.87l8-1.72a.25.25,0,0,0,.19-.3.26.26,0,0,0-.3-.19L50.9,36.48C51.09,36.6,51.28,36.74,51.46,36.87Z"/><path class="cls-1" d="M34.18,32.62l-6.5-31a.25.25,0,0,0-.3-.19.24.24,0,0,0-.19.29l6.49,30.93Z"/><path class="cls-1" d="M15.53,46.31,2.58,50.55a.26.26,0,0,0-.16.32.25.25,0,0,0,.24.17h.08l12.51-4.1C15.34,46.72,15.43,46.52,15.53,46.31Z"/><path class="cls-1" d="M16.93,43.76,1.45,47.07a.27.27,0,0,0-.2.3.26.26,0,0,0,.25.2h.05l15-3.21Z"/><path class="cls-1" d="M20,39.78H.29a.25.25,0,1,0,0,.5H19.57C19.72,40.11,19.88,40,20,39.78Z"/><path class="cls-1" d="M18.46,41.59.68,43.47a.25.25,0,0,0,0,.5h0L18,42.13Z"/><path class="cls-1" d="M.22,36.54l20.87,2.22.51-.45L.28,36.05a.25.25,0,1,0-.06.49Z"/><path class="cls-1" d="M14.38,49.24,4.07,53.87a.25.25,0,0,0-.13.33.28.28,0,0,0,.23.15l.1,0,9.92-4.46C14.25,49.66,14.31,49.45,14.38,49.24Z"/><path class="cls-1" d="M13.44,59.72l-3,2.73a.25.25,0,0,0,0,.35.24.24,0,0,0,.19.08.27.27,0,0,0,.17-.06l2.74-2.49C13.49,60.13,13.47,59.93,13.44,59.72Z"/><path class="cls-1" d="M14.23,63.48,13.1,64.74a.26.26,0,0,0,0,.36.27.27,0,0,0,.36,0l.92-1Z"/><path class="cls-1" d="M13.59,52.5,5.89,57a.25.25,0,0,0-.09.34.26.26,0,0,0,.22.13.19.19,0,0,0,.12,0l7.35-4.27C13.52,52.93,13.55,52.71,13.59,52.5Z"/><path class="cls-1" d="M13.24,56.6c0-.19,0-.38,0-.57L8,59.85A.25.25,0,0,0,8,60.2a.25.25,0,0,0,.2.1.24.24,0,0,0,.15,0l4.92-3.6Z"/><path class="cls-1" d="M33.39,32.74,23.86,3.08a.25.25,0,1,0-.47.15l9.5,29.6Z"/><path class="cls-1" d="M29.47,33.74l.52-.17L10.76,11.94a.25.25,0,0,0-.35,0,.25.25,0,0,0,0,.36Z"/><path class="cls-1" d="M30.38,33.44l.52-.14-17.23-24a.25.25,0,0,0-.35,0,.23.23,0,0,0-.06.34Z"/><path class="cls-1" d="M31.25,33.2l.51-.13L16.84,6.92a.25.25,0,0,0-.34-.09.25.25,0,0,0-.1.34Z"/><path class="cls-1" d="M.51,32.79,22.59,37.5l.49-.38L.62,32.3a.26.26,0,0,0-.3.19A.25.25,0,0,0,.51,32.79Z"/><path class="cls-1" d="M28.59,34.07l.42-.16-20.86-19a.25.25,0,0,0-.35,0,.25.25,0,0,0,0,.36Z"/><path class="cls-1" d="M32.09,33l.49-.12-12.34-28a.26.26,0,0,0-.33-.13.25.25,0,0,0-.12.33Z"/><path class="cls-1" d="M25.16,35.75l.53-.31L2.45,24.92a.25.25,0,0,0-.33.12.26.26,0,0,0,.13.34Z"/><path class="cls-1" d="M1.18,29.05l22.76,7.46.46-.3L1.34,28.58a.25.25,0,0,0-.32.15A.26.26,0,0,0,1.18,29.05Z"/><path class="cls-1" d="M26.38,35.08l.57-.3L4,21.38a.26.26,0,0,0-.35.09.27.27,0,0,0,.1.35Z"/><path class="cls-1" d="M27.55,34.51l.51-.23L5.88,18a.25.25,0,1,0-.3.4Z"/><path class="cls-1" d="M72.67,91.84h1.84a2.56,2.56,0,0,1,2.79,2.65,2.67,2.67,0,0,1-2.9,2.64H72.67Zm.72,4.62h.9a2,2,0,0,0,2.24-2,1.9,1.9,0,0,0-2.07-2H73.39Z"/><path class="cls-1" d="M79.23,91.84h.71v5.29h-.71Z"/><path class="cls-1" d="M86.7,94.17v2.61a4.2,4.2,0,0,1-2,.49,2.78,2.78,0,1,1-.08-5.56,2.57,2.57,0,0,1,2,.68l-.51.55a2.05,2.05,0,0,0-3.46,1.55,2,2,0,0,0,2.05,2.11,2.78,2.78,0,0,0,1.3-.28V94.85H84.81v-.68Z"/><path class="cls-1" d="M88.9,91.84h.72v5.29H88.9Z"/><path class="cls-1" d="M93,92.51h-1.7v-.67h4.13v.67H93.7v4.62H93Z"/><path class="cls-1" d="M98,91.84h.65L101,97.13h-.84l-.53-1.3H97.07l-.53,1.3h-.83Zm1.29,3.36-1-2.43h0l-1,2.43Z"/><path class="cls-1" d="M102.53,91.84h.72v4.62h2.43v.67h-3.15Z"/><path class="cls-1" d="M110.12,94.58h1.71V92.87h.58v1.71h1.71v.58h-1.71v1.7h-.58v-1.7h-1.71Z"/><path class="cls-1" d="M122.84,93a1.65,1.65,0,0,0-1.28-.6,2,2,0,0,0-2,2.15,2,2,0,0,0,2,2.07,1.65,1.65,0,0,0,1.39-.71l.6.45a2.43,2.43,0,0,1-2,.93,2.73,2.73,0,0,1-2.72-2.74,2.68,2.68,0,0,1,2.76-2.82,2.33,2.33,0,0,1,1.85.82Z"/><path class="cls-1" d="M125.31,91.84h1.86c1.35,0,1.7.82,1.7,1.48a1.42,1.42,0,0,1-1.3,1.4l1.5,2.41h-.9l-1.34-2.33H126v2.33h-.72Zm.72,2.33H127c.57,0,1.14-.13,1.14-.85s-.57-.85-1.14-.85H126Z"/><path class="cls-1" d="M131.89,94.88l-2-3h.92l1.44,2.33,1.49-2.33h.87l-2,3v2.25h-.72Z"/><path class="cls-1" d="M136.11,91.84H138c1.35,0,1.69.82,1.69,1.48s-.34,1.48-1.69,1.48h-1.15v2.33h-.72Zm.72,2.33h.94c.57,0,1.14-.13,1.14-.85s-.57-.85-1.14-.85h-.94Z"/><path class="cls-1" d="M142.55,92.51h-1.7v-.67H145v.67h-1.71v4.62h-.72Z"/><path class="cls-1" d="M146.31,94.49a2.76,2.76,0,1,1,2.76,2.78A2.69,2.69,0,0,1,146.31,94.49Zm4.75,0a2,2,0,1,0-2,2.11A2,2,0,0,0,151.06,94.49Z"/><path class="cls-1" d="M158.39,91.84H159l2.27,5.29h-.84l-.53-1.3h-2.52l-.53,1.3h-.83Zm1.29,3.36-1-2.43h0l-1,2.43Z"/><path class="cls-1" d="M162.88,91.84h1.87c1.35,0,1.69.82,1.69,1.48a1.42,1.42,0,0,1-1.3,1.4l1.51,2.41h-.9L164.4,94.8h-.8v2.33h-.72Zm.72,2.33h.94c.57,0,1.14-.13,1.14-.85s-.57-.85-1.14-.85h-.94Z"/><path class="cls-1" d="M169.32,92.51h-1.71v-.67h4.13v.67H170v4.62h-.71Z"/><path class="cls-1" d="M180.05,93a1.65,1.65,0,0,0-1.28-.6,2,2,0,0,0-2,2.15,2,2,0,0,0,2,2.07,1.65,1.65,0,0,0,1.39-.71l.6.45a2.43,2.43,0,0,1-2,.93A2.73,2.73,0,0,1,176,94.53a2.68,2.68,0,0,1,2.76-2.82,2.33,2.33,0,0,1,1.85.82Z"/><path class="cls-1" d="M183.14,91.84v3.25a1.34,1.34,0,1,0,2.66,0V91.84h.72V95.2a2.05,2.05,0,1,1-4.1,0V91.84Z"/><path class="cls-1" d="M188.67,91.84h1.87c1.35,0,1.69.82,1.69,1.48a1.42,1.42,0,0,1-1.3,1.4l1.51,2.41h-.9l-1.35-2.33h-.8v2.33h-.72Zm.72,2.33h.94c.57,0,1.14-.13,1.14-.85s-.57-.85-1.14-.85h-.94Z"/><path class="cls-1" d="M195.79,91.84h.65l2.27,5.29h-.84l-.53-1.3h-2.52l-.52,1.3h-.84Zm1.29,3.36-1-2.43h0l-1,2.43Z"/><path class="cls-1" d="M200.71,92.51H199v-.67h4.13v.67h-1.71v4.62h-.72Z"/><path class="cls-1" d="M204.8,91.84h.71v5.29h-.71Z"/><path class="cls-1" d="M207.44,94.49a2.76,2.76,0,1,1,2.75,2.78A2.69,2.69,0,0,1,207.44,94.49Zm4.75,0a2,2,0,1,0-2,2.11A2,2,0,0,0,212.19,94.49Z"/><path class="cls-1" d="M214.88,91.84h1l2.91,4.35h0V91.84h.71v5.29h-.91l-2.94-4.35h0v4.35h-.72Z"/><path class="cls-1" d="M134.6,36a.74.74,0,0,1,.54-.23h13a.73.73,0,0,0,.54-.22.74.74,0,0,0,.23-.54V30.61a.73.73,0,0,0-.23-.54.74.74,0,0,0-.54-.23H128.81a.74.74,0,0,0-.54.23.73.73,0,0,0-.23.54V52.48a.79.79,0,0,0,.77.77h19.35a.79.79,0,0,0,.77-.77V48.07a.75.75,0,0,0-.23-.55.73.73,0,0,0-.54-.22h-13a.74.74,0,0,1-.54-.23.73.73,0,0,1-.23-.54V45.32a.75.75,0,0,1,.23-.55.73.73,0,0,1,.54-.22h11.74a.76.76,0,0,0,.54-.22.75.75,0,0,0,.23-.55V39.37a.74.74,0,0,0-.23-.54.73.73,0,0,0-.54-.23H135.14a.73.73,0,0,1-.54-.22.75.75,0,0,1-.23-.55V36.49a.74.74,0,0,1,.23-.54"/><path class="cls-1" d="M120,82.45a.76.76,0,0,0,.21-.54V77.56A.77.77,0,0,0,120,77a.75.75,0,0,0-.56-.22H108.91a.34.34,0,0,1-.38-.27.62.62,0,0,1,.12-.53l11-11a2.55,2.55,0,0,0,.34-.64,2.12,2.12,0,0,0,.14-.7V60a.77.77,0,0,0-.21-.55.72.72,0,0,0-.56-.22H100.05a.73.73,0,0,0-.54.22.75.75,0,0,0-.22.55v4.41a.73.73,0,0,0,.22.54.74.74,0,0,0,.54.23h10.5c.23,0,.37.09.41.28a.65.65,0,0,1-.13.55L99.8,77a2.74,2.74,0,0,0-.35.64,1.8,1.8,0,0,0-.16.7v3.58a.75.75,0,0,0,.76.76H119.4a.72.72,0,0,0,.56-.22"/><path class="cls-1" d="M113.45,40.42a.73.73,0,0,0,.23-.54V36.49a.79.79,0,0,0-.77-.77h-3.37a2.2,2.2,0,0,0-1.13.28,2.15,2.15,0,0,0-.73.67,2.49,2.49,0,0,0-.38.83,2.89,2.89,0,0,0-.12.75,2.33,2.33,0,0,0,.23,1.06,2.66,2.66,0,0,0,.57.75,2.25,2.25,0,0,0,.76.44,2.35,2.35,0,0,0,.8.15h3.37a.74.74,0,0,0,.54-.23M113.9,53a.73.73,0,0,1-.22-.54V47.3a.76.76,0,0,0-.23-.55.77.77,0,0,0-.54-.22h-.7a1.5,1.5,0,0,0-.67.18,1.47,1.47,0,0,0-.54.43c-.65.94-1.32,1.86-2,2.78s-1.34,1.82-2,2.72a1.41,1.41,0,0,1-.56.43,1.54,1.54,0,0,1-.68.18h-6a.42.42,0,0,1-.42-.31.6.6,0,0,1,.1-.56c.7-.94,1.5-2,2.4-3.1s1.75-2.23,2.56-3.29a.61.61,0,0,0,.11-.53.9.9,0,0,0-.34-.46,5.77,5.77,0,0,1-1.37-1.2,8,8,0,0,1-1.06-1.62,8.6,8.6,0,0,1-.69-1.9,8.73,8.73,0,0,1-.24-2,8.82,8.82,0,0,1,.63-3.39,8,8,0,0,1,1.72-2.65,7.79,7.79,0,0,1,2.67-1.75,9.32,9.32,0,0,1,3.42-.62h9.95a.74.74,0,0,1,.54.23.73.73,0,0,1,.23.54V52.48a.79.79,0,0,1-.78.77h-4.78a.75.75,0,0,1-.55-.23"/><path class="cls-1" d="M148.88,59.53a.53.53,0,0,0-.47-.23h-5.75a1.42,1.42,0,0,0-.66.19,1.26,1.26,0,0,0-.49.48l-2.95,6.85a.44.44,0,0,1-.38.25.45.45,0,0,1-.38-.25l-3-6.85a1.36,1.36,0,0,0-.5-.48,1.38,1.38,0,0,0-.66-.19H128a.39.39,0,0,0-.41.31.72.72,0,0,0,.06.59c1.32,2.23,2.34,4.41,3.67,6.52s2,4.26,3.28,6.46a2.52,2.52,0,0,1,.28.69,3.16,3.16,0,0,1,.11.75v7.29a.75.75,0,0,0,.76.76h4.81a.73.73,0,0,0,.54-.22.77.77,0,0,0,.22-.54V74.58a2.4,2.4,0,0,1,.13-.73,3.63,3.63,0,0,1,.28-.7l7-13c.17-.3.21-.53.12-.67"/><path class="cls-1" d="M85.74,65.38a.75.75,0,0,0-.55-.23h-13a.75.75,0,0,1-.76-.76V60a.75.75,0,0,1,.76-.77H91.52a.75.75,0,0,1,.77.77V81.91a.75.75,0,0,1-.77.76H72.17a.75.75,0,0,1-.76-.76V77.49a.75.75,0,0,1,.76-.76h13a.75.75,0,0,0,.55-.23A.73.73,0,0,0,86,76V74.74a.75.75,0,0,0-.77-.76H73.45a.74.74,0,0,1-.54-.23.73.73,0,0,1-.22-.54V68.8a.74.74,0,0,1,.22-.55.77.77,0,0,1,.54-.22H85.19a.75.75,0,0,0,.77-.77V65.92a.73.73,0,0,0-.22-.54"/><path class="cls-1" d="M92.18,44.32a5.57,5.57,0,0,0-.71-1.4,5.22,5.22,0,0,0-.94-1,7.74,7.74,0,0,0-1-.7c-.43-.21-.45-.46-.07-.73A6.62,6.62,0,0,0,91,38.79a4.29,4.29,0,0,0,.72-2.49,6.45,6.45,0,0,0-.65-3,5.8,5.8,0,0,0-1.73-2,6.91,6.91,0,0,0-2.48-1.1,12.33,12.33,0,0,0-2.94-.34H72.33a.77.77,0,0,0-.54.22.76.76,0,0,0-.23.55V52.48a.74.74,0,0,0,.23.54.73.73,0,0,0,.54.22H84.39a13.77,13.77,0,0,0,3-.33A7.2,7.2,0,0,0,90,51.76a5.8,5.8,0,0,0,1.77-2.18,7.82,7.82,0,0,0,.66-3.43A5.73,5.73,0,0,0,92.18,44.32ZM77.89,36.49a.79.79,0,0,1,.77-.77h5a1.35,1.35,0,0,1,.88.42,1.29,1.29,0,0,1,.46,1,1.71,1.71,0,0,1-.38,1.1,1.23,1.23,0,0,1-1,.5h-4.9a.77.77,0,0,1-.54-.22.76.76,0,0,1-.23-.55Zm7.36,10.39a1.56,1.56,0,0,1-1.08.48H78.66a.73.73,0,0,1-.54-.22.75.75,0,0,1-.23-.55V44.77a.79.79,0,0,1,.77-.77h5.28a1.63,1.63,0,0,1,1.33.6,1.81,1.81,0,0,1,.49,1.16A1.49,1.49,0,0,1,85.25,46.88Z"/><path class="cls-1" d="M37.09,42.11a.27.27,0,0,0,.27.27h1.73a.45.45,0,0,0,.36-.17.64.64,0,0,0,.14-.39.44.44,0,0,0-.17-.35.47.47,0,0,0-.31-.15H37.36a.27.27,0,0,0-.27.27Z"/><path class="cls-1" d="M37.09,45.15a.26.26,0,0,0,.08.19.24.24,0,0,0,.19.08H39.3a.53.53,0,0,0,.39-.17.51.51,0,0,0,.18-.39.63.63,0,0,0-.18-.41.56.56,0,0,0-.46-.21H37.36a.27.27,0,0,0-.27.27Z"/></g></g></svg>