<?xml version="1.0" standalone="no"?>
<!DOCTYPE svg PUBLIC "-//W3C//DTD SVG 20010904//EN"
 "http://www.w3.org/TR/2001/REC-SVG-20010904/DTD/svg10.dtd">
<svg version="1.0" xmlns="http://www.w3.org/2000/svg"
 width="2922.000000pt" height="658.000000pt" viewBox="0 0 2922.000000 658.000000"
 preserveAspectRatio="xMidYMid meet">

<g transform="translate(0.000000,658.000000) scale(0.100000,-0.100000)"
fill="#000000" stroke="none">
<path d="M21180 6570 c-213 -21 -635 -176 -990 -362 -512 -269 -866 -526
-1245 -903 -616 -611 -1153 -1427 -1490 -2265 -100 -246 -189 -504 -176 -508
5 -2 40 20 77 49 211 158 454 292 587 325 21 5 25 9 15 15 -8 5 -9 9 -2 9 7 0
15 11 18 25 4 14 11 25 16 25 6 0 10 7 10 16 0 9 18 33 40 54 22 21 40 41 40
45 0 4 9 14 19 23 11 10 34 45 51 79 18 35 36 60 41 57 5 -3 9 -1 9 4 0 5 6 9
13 9 31 0 117 38 117 52 0 11 4 10 15 -5 14 -19 15 -19 21 4 5 18 9 20 20 11
8 -6 14 -7 14 -2 0 5 6 10 13 10 6 0 46 4 87 8 84 8 83 8 90 5 3 -1 37 -3 75
-4 39 -2 90 -9 115 -16 25 -8 52 -14 60 -14 8 -1 20 -4 25 -7 13 -8 68 -23 78
-21 4 1 7 -2 7 -7 0 -5 15 -13 32 -17 18 -3 40 -15 49 -25 17 -20 35 -26 24
-9 -10 17 1 11 31 -15 44 -38 134 -93 134 -81 0 3 11 -6 25 -20 14 -14 25 -30
25 -36 0 -5 7 -7 16 -4 11 4 18 -1 21 -15 3 -11 11 -18 19 -15 7 3 16 1 19 -4
4 -6 11 -10 16 -10 6 0 7 5 3 12 -4 7 -3 8 5 4 6 -4 9 -12 6 -17 -4 -5 4 -13
17 -18 27 -11 84 -53 87 -63 0 -5 1 -13 1 -19 0 -6 7 -9 15 -5 8 3 14 2 14 -2
-3 -19 2 -33 10 -28 4 3 8 -9 7 -27 -1 -21 3 -31 12 -30 6 2 12 -3 12 -10 0
-16 34 -50 42 -42 2 3 15 -15 27 -40 12 -25 26 -45 31 -45 4 0 13 -14 19 -31
7 -19 15 -28 22 -23 7 4 9 3 5 -4 -3 -6 0 -16 7 -24 7 -7 14 -16 16 -20 1 -4
8 -23 16 -42 8 -20 15 -41 15 -49 0 -7 4 -17 9 -22 4 -6 16 -48 25 -95 21
-113 12 -300 -21 -414 -5 -18 -6 -18 -20 5 -10 16 -12 18 -7 4 3 -11 20 -67
36 -125 27 -95 30 -124 35 -297 5 -172 -4 -342 -24 -452 -3 -20 -2 -32 4 -30
28 11 292 328 465 559 92 123 301 442 413 630 95 160 310 586 383 760 267 637
404 1153 453 1710 15 170 15 725 0 890 -37 404 -115 767 -194 905 -26 45 -25
45 -127 35z m-710 -361 c0 -12 -7 -27 -15 -33 -8 -6 -16 -23 -17 -38 -2 -19
-9 -29 -25 -33 -13 -3 -23 -12 -23 -21 0 -8 -4 -13 -9 -10 -5 3 -16 -10 -25
-29 -10 -20 -21 -33 -27 -30 -5 4 -9 3 -9 -2 0 -4 -43 -53 -96 -107 -52 -55
-102 -110 -111 -122 -8 -13 -19 -21 -24 -18 -5 3 -9 -2 -9 -10 0 -20 -89 -116
-107 -116 -7 0 -13 -6 -13 -14 0 -7 -13 -27 -29 -44 -16 -16 -26 -34 -23 -38
4 -4 2 -4 -5 -1 -6 4 -25 -11 -45 -34 -18 -23 -48 -57 -65 -76 -18 -19 -33
-39 -33 -44 0 -5 -7 -9 -15 -9 -8 0 -15 -4 -15 -9 0 -5 -19 -29 -42 -53 -24
-24 -49 -57 -57 -71 -8 -15 -18 -27 -22 -27 -8 0 -79 -67 -79 -75 0 -2 -16
-21 -35 -41 -19 -19 -35 -40 -35 -45 0 -5 -6 -9 -14 -9 -8 0 -17 -8 -21 -17
-8 -26 -52 -73 -67 -73 -11 0 -11 -2 0 -9 10 -6 7 -12 -11 -24 -33 -22 -82
-67 -72 -67 4 0 2 -7 -5 -15 -7 -8 -16 -12 -21 -9 -5 3 -9 -1 -9 -10 0 -17
-65 -86 -81 -86 -6 0 -9 -6 -7 -12 5 -15 -15 -38 -34 -38 -10 0 -9 -3 2 -10
13 -8 13 -10 -2 -10 -9 0 -26 -12 -37 -27 -11 -16 -28 -36 -37 -45 -9 -10 -22
-28 -29 -40 -6 -13 -17 -22 -25 -20 -7 2 -10 -3 -7 -11 3 -7 -8 -22 -24 -33
-16 -10 -27 -25 -24 -32 2 -7 -5 -17 -18 -22 -12 -5 -19 -9 -15 -9 4 -1 0 -10
-9 -20 -9 -11 -20 -18 -25 -15 -4 3 -8 0 -8 -6 0 -6 -4 -9 -8 -6 -4 2 -9 -5
-9 -16 -2 -25 -6 -29 -30 -32 -10 -2 -19 -8 -19 -14 -1 -7 -3 -15 -4 -19 -1
-5 -1 -12 0 -18 1 -5 -2 -7 -6 -2 -9 9 -54 -32 -54 -50 0 -7 -7 -13 -16 -13
-10 0 -14 -6 -11 -14 4 -10 1 -13 -9 -9 -7 3 -14 1 -14 -4 0 -6 -11 -23 -25
-39 -14 -16 -25 -23 -25 -16 0 11 -2 11 -13 0 -7 -7 -18 -22 -25 -33 -11 -19
-11 -19 -12 -1 0 18 -1 18 -19 -2 -10 -12 -22 -18 -26 -14 -5 4 -5 1 -1 -6 4
-7 1 -15 -8 -18 -9 -3 -16 -12 -16 -19 0 -8 -5 -17 -12 -21 -7 -4 -8 -3 -4 4
4 7 2 12 -4 12 -6 0 -10 -7 -8 -17 2 -9 -18 -39 -44 -67 -26 -28 -46 -56 -43
-63 2 -7 -2 -10 -11 -6 -10 4 -12 0 -8 -11 4 -10 1 -16 -8 -16 -8 0 -24 -11
-36 -25 -12 -14 -26 -25 -32 -25 -5 0 -10 -12 -10 -27 0 -20 -3 -24 -11 -16
-6 6 -18 9 -25 6 -21 -8 -17 -23 4 -16 14 5 14 3 -3 -10 -10 -8 -26 -12 -34
-9 -9 3 -12 1 -7 -6 4 -7 2 -12 -4 -12 -6 0 -8 -4 -5 -10 9 -14 -19 -12 -34 3
-11 10 -12 7 -6 -13 7 -23 7 -24 -11 -10 -10 8 -16 11 -12 6 4 -5 0 -15 -8
-23 -11 -12 -18 -12 -28 -3 -11 9 -16 6 -21 -11 l-7 -22 -14 24 c-7 13 -14 20
-14 14 -1 -5 -5 -1 -10 10 -8 19 -9 19 -9 -3 -1 -13 -5 -21 -10 -18 -5 3 -7
15 -4 26 3 12 0 20 -8 20 -8 0 -6 5 6 13 10 8 15 19 11 25 -4 7 -2 12 4 12 7
0 8 6 0 19 -6 13 -7 22 0 26 5 3 6 13 3 22 -4 10 -2 14 4 10 6 -4 9 4 7 21 -1
14 2 30 8 33 7 4 13 17 15 30 2 12 8 28 14 36 6 7 8 13 5 13 -4 0 2 13 13 29
12 16 21 34 21 40 0 6 11 28 24 49 26 38 83 140 113 202 10 19 21 37 26 38 4
2 5 8 1 13 -3 5 0 9 5 9 6 0 11 6 11 13 0 7 21 42 46 78 25 35 50 73 55 84 5
11 26 43 46 71 21 28 60 82 88 120 62 85 46 66 168 214 99 122 119 146 240
277 74 81 256 258 287 280 14 10 34 27 45 39 36 38 297 241 360 280 17 10 32
21 35 24 29 32 575 335 621 344 19 4 49 15 84 31 29 13 57 21 83 24 6 0 12 -9
12 -20z m867 -545 c-3 -4 -1 -16 5 -28 6 -11 13 -32 15 -46 14 -108 17 -172
17 -360 -1 -235 -10 -305 -63 -515 -11 -44 -32 -109 -46 -144 -14 -36 -23 -67
-20 -69 2 -3 -5 -16 -15 -30 -11 -13 -20 -31 -20 -39 0 -8 -5 -11 -12 -7 -7 5
-8 3 -4 -5 5 -7 0 -21 -10 -32 -9 -10 -22 -29 -28 -40 -10 -19 -28 -31 -88
-61 -10 -4 -18 -5 -18 -2 0 4 8 13 18 20 16 13 16 13 -1 14 -10 0 -15 5 -12
10 3 6 -1 13 -10 16 -9 4 -14 13 -11 20 3 8 1 14 -4 14 -5 0 -7 14 -3 32 4 22
3 29 -5 24 -15 -9 -16 6 -2 20 6 6 6 23 -1 49 -6 21 -9 53 -6 71 3 17 0 37 -6
43 -8 8 -7 11 4 11 13 0 16 19 21 152 0 15 5 25 10 21 6 -3 5 4 -1 15 -7 14
-8 21 0 24 5 2 12 25 14 51 2 26 7 52 11 58 3 6 7 20 9 32 1 12 13 56 26 97
13 41 23 81 22 88 0 6 3 12 8 12 5 0 8 3 7 8 -3 15 77 266 92 287 4 6 11 26
15 45 4 19 12 41 18 48 5 7 7 15 4 18 -3 4 -1 12 6 19 7 8 21 25 32 39 11 14
24 25 29 26 5 0 6 -3 3 -6z m-871 -268 c82 -22 150 -65 216 -135 69 -74 106
-146 118 -229 8 -62 -3 -156 -25 -206 l-13 -31 -1 33 c-1 41 -14 41 -29 -2 -7
-18 -21 -41 -31 -50 -19 -17 -19 -17 -14 6 l6 23 -24 -21 c-71 -63 -166 -94
-292 -94 -75 -1 -259 -23 -290 -35 -17 -7 -17 -9 -1 -26 9 -11 13 -19 7 -19
-17 0 -109 104 -132 148 -40 78 -53 155 -48 272 4 93 9 114 31 153 64 109 180
189 321 220 43 10 153 6 201 -7z m-532 -612 c90 -189 303 -306 501 -274 35 6
76 15 91 20 45 18 38 4 -8 -15 -57 -23 -179 -30 -251 -16 -127 27 -250 113
-322 225 -54 85 -90 238 -68 293 5 11 10 -16 15 -70 5 -72 13 -102 42 -163z
m169 -240 c33 -20 92 -46 131 -59 l71 -24 -45 0 c-53 -1 -129 21 -178 50 -52
30 -122 90 -117 99 3 4 -1 10 -9 13 -7 3 -16 16 -18 29 -3 13 -9 32 -14 43 -4
11 21 -11 56 -48 34 -37 90 -84 123 -103z m563 127 c-93 -95 -286 -150 -383
-109 -25 11 -14 13 88 18 107 6 123 10 190 42 41 20 88 48 104 62 44 37 44 32
1 -13z m-1091 -168 c39 -20 72 -37 74 -39 6 -5 -40 -74 -50 -74 -5 0 -36 14
-69 30 -33 17 -60 26 -60 20 0 -5 10 -15 23 -21 74 -38 90 -102 38 -158 -40
-43 -84 -42 -172 6 -38 21 -69 40 -69 43 0 13 41 70 50 70 6 0 37 -14 70 -30
68 -34 83 -24 18 12 -40 22 -43 27 -46 69 -3 42 0 49 33 78 46 40 74 40 160
-6z m218 -115 c50 -28 93 -53 95 -54 2 -1 -32 -66 -44 -82 -1 -2 -30 12 -64
32 -66 39 -70 40 -70 27 0 -5 20 -21 45 -35 l45 -27 -20 -39 c-11 -22 -24 -40
-29 -40 -5 0 -28 11 -52 24 l-43 25 -24 -40 c-13 -21 -25 -39 -27 -39 -14 0
-75 35 -75 43 0 9 122 218 143 245 14 18 19 16 120 -40z m197 -118 c0 -3 -15
-31 -33 -61 -18 -30 -49 -84 -70 -121 -21 -37 -42 -70 -47 -73 -16 -10 -82 28
-77 45 2 9 37 72 76 139 l72 122 40 -23 c21 -12 39 -24 39 -28z m90 -47 c82
-49 110 -86 110 -148 0 -44 -4 -52 -45 -92 -39 -37 -45 -48 -45 -83 0 -46 -9
-49 -56 -19 -28 17 -34 27 -34 54 0 41 -33 58 -55 28 -13 -17 -15 -17 -49 1
-20 11 -36 25 -36 33 0 12 140 263 146 263 2 0 30 -16 64 -37z m283 -177 c42
-27 77 -54 77 -59 0 -5 -9 -25 -21 -43 l-21 -34 -41 28 c-61 41 -65 43 -71 33
-4 -5 12 -20 34 -32 45 -26 46 -28 25 -70 l-16 -29 -37 25 c-39 27 -52 31 -52
16 0 -5 23 -23 50 -41 28 -18 50 -37 50 -42 0 -17 -34 -68 -45 -68 -5 0 -40
19 -76 43 -37 23 -75 47 -85 54 -18 11 -17 16 25 95 84 160 102 188 115 181 7
-5 47 -30 89 -57z"/>
<path d="M20598 5246 c12 -39 20 -52 32 -49 18 5 29 -13 62 -109 24 -73 48
-90 48 -35 -1 93 -49 191 -111 226 -20 12 -39 21 -42 21 -2 0 3 -24 11 -54z"/>
<path d="M20035 4106 c-14 -22 -15 -29 -5 -42 8 -8 25 -14 39 -12 33 4 36 44
4 65 -20 13 -23 12 -38 -11z"/>
</g>
</svg>
