<svg width="42" height="42" viewBox="0 0 42 42" fill="none" xmlns="http://www.w3.org/2000/svg">
<path fill-rule="evenodd" clip-rule="evenodd" d="M21 42C32.598 42 42 32.598 42 21C42 9.40202 32.598 0 21 0C9.40202 0 0 9.40202 0 21C0 32.598 9.40202 42 21 42ZM37.1257 18.0387H31.3392C31.0423 18.0387 30.8028 18.2798 30.8028 18.5751C30.8028 18.8705 31.0439 19.1116 31.3392 19.1116H33.7559V22.8818C29.1031 22.8293 27.1474 22.1041 26.3337 21.566H28.355C29.3196 21.566 30.1039 20.7818 30.1039 19.8171C30.1039 18.8524 29.3196 18.0682 28.355 18.0682H22.8178L18.4685 22.5389C18.4341 22.575 18.3931 22.5832 18.3652 22.5832C18.334 22.5816 18.2963 22.5766 18.2602 22.5422L14.2521 18.6342C13.7731 18.1683 13.002 18.1748 12.5311 18.649L8.69698 22.5258C8.6576 22.5651 8.61331 22.5717 8.58214 22.5684C8.55753 22.5668 8.50995 22.5569 8.47386 22.5094L5.30417 18.2815C5.12698 18.0436 4.78901 17.996 4.55276 18.1732C4.31487 18.352 4.26729 18.6883 4.44448 18.9246L7.61417 23.1525C7.82745 23.4363 8.15393 23.6135 8.50831 23.6381C8.86268 23.6644 9.21049 23.5315 9.45987 23.2788L13.294 19.402C13.3498 19.3446 13.4433 19.3446 13.5007 19.4004L17.5088 23.3083C17.7434 23.5364 18.0551 23.6693 18.3799 23.6545C18.7081 23.6496 19.0132 23.5167 19.2396 23.2837L23.2707 19.1395H28.355C28.7274 19.1395 29.0292 19.443 29.0292 19.8138C29.0292 20.1846 28.7257 20.4881 28.355 20.4881H24.6931V21.0246C24.6964 21.5135 25.1803 23.9548 34.2924 23.9548H34.8289V19.1133H37.1241C37.421 19.1133 37.6606 18.8721 37.6606 18.5768C37.6606 18.2815 37.421 18.0387 37.1257 18.0387ZM14.1045 22.1829C14.1045 22.5643 13.7952 22.8736 13.4138 22.8736C13.0323 22.8736 12.7231 22.5643 12.7231 22.1829C12.7231 21.8014 13.0323 21.4922 13.4138 21.4922C13.7952 21.4922 14.1045 21.8014 14.1045 22.1829Z" fill="white"/>
</svg>
