<svg width="80" height="80" viewBox="0 0 80 80" fill="none" xmlns="http://www.w3.org/2000/svg">
<path d="M40 80C62.0914 80 80 62.0914 80 40C80 17.9086 62.0914 0 40 0C17.9086 0 0 17.9086 0 40C0 62.0914 17.9086 80 40 80Z" fill="#0000FF"/>
<path d="M70.7156 34.3594H59.6937C59.1281 34.3594 58.6718 34.8188 58.6718 35.3813C58.6718 35.9438 59.1312 36.4031 59.6937 36.4031H64.2968V43.5844C55.4343 43.4844 51.7093 42.1031 50.1593 41.0781H54.0093C55.8469 41.0781 57.3406 39.5844 57.3406 37.7469C57.3406 35.9094 55.8469 34.4156 54.0093 34.4156H43.4625L35.1781 42.9313C35.1125 43 35.0343 43.0156 34.9812 43.0156C34.9218 43.0125 34.85 43.0031 34.7812 42.9375L27.1468 35.4938C26.2343 34.6063 24.7656 34.6188 23.8687 35.5219L16.5656 42.9063C16.4906 42.9813 16.4062 42.9938 16.3468 42.9875C16.3 42.9844 16.2093 42.9656 16.1406 42.875L10.1031 34.8219C9.7656 34.3688 9.12185 34.2781 8.67185 34.6156C8.21872 34.9562 8.1281 35.5969 8.4656 36.0469L14.5031 44.1C14.9093 44.6406 15.5312 44.9781 16.2062 45.025C16.8812 45.075 17.5437 44.8219 18.0187 44.3406L25.3218 36.9563C25.4281 36.8469 25.6062 36.8469 25.7156 36.9531L33.35 44.3969C33.7968 44.8313 34.3906 45.0844 35.0093 45.0562C35.6343 45.0469 36.2156 44.7938 36.6468 44.35L44.325 36.4563H54.0093C54.7187 36.4563 55.2937 37.0344 55.2937 37.7406C55.2937 38.4469 54.7156 39.025 54.0093 39.025H47.0343V40.0469C47.0406 40.9781 47.9625 45.6281 65.3187 45.6281H66.3406V36.4063H70.7125C71.2781 36.4063 71.7344 35.9469 71.7344 35.3844C71.7344 34.8219 71.2781 34.3594 70.7156 34.3594Z" fill="white"/>
<path d="M25.55 43.5687C26.2766 43.5687 26.8656 42.9797 26.8656 42.2531C26.8656 41.5265 26.2766 40.9375 25.55 40.9375C24.8234 40.9375 24.2344 41.5265 24.2344 42.2531C24.2344 42.9797 24.8234 43.5687 25.55 43.5687Z" fill="white"/>
</svg>
