<svg width="17" height="16" viewBox="0 0 17 16" fill="none" xmlns="http://www.w3.org/2000/svg">
<path d="M12.9907 0.817778L9.65223 5.77778C9.42138 6.11556 9.86533 6.52444 10.185 6.24L13.4702 3.37778C13.559 3.30667 13.6833 3.36 13.6833 3.48444V12.4267C13.6833 12.5511 13.5235 12.6044 13.4525 12.5156L3.50795 0.604445C3.1883 0.213333 2.72659 0 2.21161 0H1.85645C0.93303 0 0.169434 0.764444 0.169434 1.70667V14.2933C0.169434 15.2356 0.93303 16 1.87421 16C2.46022 16 3.01072 15.6978 3.33037 15.1822L6.66888 10.2222C6.89973 9.88444 6.45578 9.47556 6.13614 9.76L2.8509 12.6044C2.76211 12.6756 2.6378 12.6222 2.6378 12.4978V3.57333C2.6378 3.44889 2.79762 3.39556 2.86866 3.48444L12.8132 15.3956C13.1328 15.7867 13.6123 16 14.1095 16H14.4647C15.4058 16 16.1694 15.2356 16.1694 14.2933V1.70667C16.1694 0.764444 15.4058 0 14.4647 0C13.8609 0 13.3104 0.302222 12.9907 0.817778Z" fill="white"/>
</svg>
